<svg xmlns="http://www.w3.org/2000/svg" viewBox="0 0 500 500"><g id="freepik--Floor--inject-6"><path d="M98.73,396.68c84.09,43.92,220.42,43.93,304.51,0s84.09-115.15,0-159.08-220.42-43.93-304.51,0S14.65,352.75,98.73,396.68Z" style="fill:#fafafa"></path></g><g id="freepik--Shadow--inject-6"><ellipse cx="124.23" cy="366.17" rx="50.81" ry="24.22" style="fill:#f0f0f0"></ellipse></g><g id="freepik--Plants--inject-6"><path d="M389.44,143.79V246.84c0,1.23-.82,2.47-2.45,3.41a13.07,13.07,0,0,1-11.84,0c-1.63-.94-2.45-2.18-2.45-3.41v-103Z" style="fill:#455a64"></path><path d="M325.62,197.12l51.84-125.2h7.22l51.85,125.21a6.62,6.62,0,0,1-4.84,9l-.84.17a6.63,6.63,0,0,0-5.29,7.32h0A6.62,6.62,0,0,1,417,220.8l-2.56-.78a6.61,6.61,0,0,0-8,3.59l-2.58,5.69a6.63,6.63,0,0,1-9.41,3l-10.06-6a6.65,6.65,0,0,0-6.76,0l-10.05,6a6.63,6.63,0,0,1-9.42-3l-2.58-5.69a6.62,6.62,0,0,0-8-3.6l-2.56.79a6.62,6.62,0,0,1-8.52-7.15h0a6.63,6.63,0,0,0-5.28-7.32l-.85-.17A6.62,6.62,0,0,1,325.62,197.12Z" style="fill:#1E3A8A"></path><path d="M325.62,197.12l51.84-125.2h7.22l51.85,125.21a6.62,6.62,0,0,1-4.84,9l-.84.17a6.63,6.63,0,0,0-5.29,7.32h0A6.62,6.62,0,0,1,417,220.8l-2.56-.78a6.61,6.61,0,0,0-8,3.59l-2.58,5.69a6.63,6.63,0,0,1-9.41,3l-10.06-6a6.65,6.65,0,0,0-6.76,0l-10.05,6a6.63,6.63,0,0,1-9.42-3l-2.58-5.69a6.62,6.62,0,0,0-8-3.6l-2.56.79a6.62,6.62,0,0,1-8.52-7.15h0a6.63,6.63,0,0,0-5.28-7.32l-.85-.17A6.62,6.62,0,0,1,325.62,197.12Z" style="opacity:0.2"></path><path d="M337.18,160.72l40.28-93.8h7.22L426,160.72c1.49,3,.64,6.61-2.68,7.16a5,5,0,0,0-4.17,5.52l.11,1a5,5,0,0,1-6.75,5.26l-2.57-1a5,5,0,0,0-6.35,2.64l-3.19,7.14a5,5,0,0,1-7.14,2.26L383.64,185a5,5,0,0,0-5.13,0l-8.6,5.72a5,5,0,0,1-7.14-2.26l-3.18-7.14a5,5,0,0,0-6.36-2.64l-2.56,1a5,5,0,0,1-6.76-5.26l.11-1a5,5,0,0,0-4.16-5.53h0C336.54,167.33,335.69,163.73,337.18,160.72Z" style="fill:#1E3A8A"></path><path d="M337.18,160.72l40.28-93.8h7.22L426,160.72c1.49,3,.64,6.61-2.68,7.16a5,5,0,0,0-4.17,5.52l.11,1a5,5,0,0,1-6.75,5.26l-2.57-1a5,5,0,0,0-6.35,2.64l-3.19,7.14a5,5,0,0,1-7.14,2.26L383.64,185a5,5,0,0,0-5.13,0l-8.6,5.72a5,5,0,0,1-7.14-2.26l-3.18-7.14a5,5,0,0,0-6.36-2.64l-2.56,1a5,5,0,0,1-6.76-5.26l.11-1a5,5,0,0,0-4.16-5.53h0C336.54,167.33,335.69,163.73,337.18,160.72Z" style="opacity:0.1"></path><path d="M347.21,123.83l30.28-63.65.24-.39a3.85,3.85,0,0,1,6.69,0l.24.4,30.27,63.64a4.52,4.52,0,0,1-1.63,6.31l-.22.12a4.52,4.52,0,0,0-2.3,4.32,4.51,4.51,0,0,1-5.64,4.75l-1.75-.46a4.51,4.51,0,0,0-5.13,2.23l-2.4,4.48a4.52,4.52,0,0,1-6.07,1.87L383.16,144a4.54,4.54,0,0,0-4.18,0l-6.63,3.47a4.51,4.51,0,0,1-6.06-1.87l-2.41-4.48a4.49,4.49,0,0,0-5.12-2.23l-1.75.46a4.52,4.52,0,0,1-5.65-4.75h0a4.53,4.53,0,0,0-2.29-4.32l-.23-.13A4.51,4.51,0,0,1,347.21,123.83Z" style="fill:#1E3A8A"></path><path d="M403.21,402.93c1-2,1.56-4.78-.55-9a17.76,17.76,0,0,1-2-8,14.16,14.16,0,0,1,.45-3.43c.28-1.1.69-3.89,2.49-3.45.56.14.83.78,1,1.34a24.06,24.06,0,0,0,1.07,3.41c.3.65,1.54,2.79,2.48,2.42s.25-1.91.17-2.49c-.14-1.07-.25-2.14-.33-3.22a15,15,0,0,1,.43-4.26,22.17,22.17,0,0,1,2.21-6.65,1.42,1.42,0,0,1,2.63.68,9.86,9.86,0,0,0,.8,4.3,2.56,2.56,0,0,0,1.07,1.2,1.18,1.18,0,0,0,1.48-.27,1.92,1.92,0,0,0,.25-.9,24.81,24.81,0,0,1,4.67-12,1.42,1.42,0,0,1,2.53.71,6.46,6.46,0,0,0,.74,2.82c1.16,1.49,3.61.27,5-.28a35.35,35.35,0,0,0,5-2.69,14.9,14.9,0,0,1,3-1.35,1.36,1.36,0,0,1,1-.1.93.93,0,0,1,.44,1,2.36,2.36,0,0,1-.48,1c-.87,1.24-1.95,2.32-2.9,3.5-1.15,1.42-3.1,4.11-2.07,6a3,3,0,0,0,1.64,1.3,6.21,6.21,0,0,0,2.63.32,1.42,1.42,0,0,1,1.18,2.35,23.56,23.56,0,0,1-10.2,6.19,3.53,3.53,0,0,0-1.22.54,1.12,1.12,0,0,0-.4,1.19,1.56,1.56,0,0,0,.95.74,12.78,12.78,0,0,0,4.92.94c1.4,0,2.23,1.52,1.18,2.45-5.66,5-13.35,3-16,2.85-3.15-.13-2.9,2.69-.87,3.92s4.89,1.43,7.13,1.29a1.42,1.42,0,0,1,1,2.53c-3,2.23-7.68,3.55-13.55,1.94C407.6,400.47,404.34,401.16,403.21,402.93Z" style="fill:#1E3A8A"></path><path d="M431,368.41c-3.52,3.35-21.62,21.34-27.81,34.52" style="fill:none;stroke:#fff;stroke-linecap:round;stroke-miterlimit:10"></path><path d="M313.52,311.1c.56-2.22.48-5-2.49-8.68a17.88,17.88,0,0,1-3.68-7.39,14.25,14.25,0,0,1-.3-3.45c0-1.13-.17-3.94,1.68-3.9.58,0,1,.57,1.25,1.09a22.69,22.69,0,0,0,1.79,3.1c.43.57,2.1,2.38,2.94,1.82s-.17-1.91-.37-2.46c-.38-1-.72-2-1-3.07a15.58,15.58,0,0,1-.5-4.26,22.1,22.1,0,0,1,.72-7,1.42,1.42,0,0,1,2.72.1,9.91,9.91,0,0,0,1.7,4,2.61,2.61,0,0,0,1.31.94,1.19,1.19,0,0,0,1.38-.58,1.86,1.86,0,0,0,.05-.94,24.85,24.85,0,0,1,1.95-12.75,1.43,1.43,0,0,1,2.63.13,6.43,6.43,0,0,0,1.33,2.6c1.46,1.2,3.58-.52,4.8-1.35a35.66,35.66,0,0,0,4.34-3.72,15,15,0,0,1,2.59-2,1.4,1.4,0,0,1,1-.31.92.92,0,0,1,.64.84,2.36,2.36,0,0,1-.25,1.1c-.59,1.39-1.4,2.68-2.07,4-.82,1.63-2.14,4.68-.72,6.32a3,3,0,0,0,1.88.92,6.1,6.1,0,0,0,2.65-.26,1.43,1.43,0,0,1,1.66,2,23.61,23.61,0,0,1-8.62,8.25,3.7,3.7,0,0,0-1.07.8,1.1,1.1,0,0,0-.14,1.24,1.5,1.5,0,0,0,1.09.52,13,13,0,0,0,5-.15c1.37-.31,2.51,1,1.68,2.14-4.43,6.12-12.38,5.79-15,6.26-3.11.55-2.24,3.25,0,4a12.54,12.54,0,0,0,7.24-.29,1.42,1.42,0,0,1,1.51,2.26c-2.43,2.82-6.73,5.13-12.81,4.84C317.27,307.75,314.24,309.12,313.52,311.1Z" style="fill:#1E3A8A"></path><path d="M313.52,311.1c.56-2.22.48-5-2.49-8.68a17.88,17.88,0,0,1-3.68-7.39,14.25,14.25,0,0,1-.3-3.45c0-1.13-.17-3.94,1.68-3.9.58,0,1,.57,1.25,1.09a22.69,22.69,0,0,0,1.79,3.1c.43.57,2.1,2.38,2.94,1.82s-.17-1.91-.37-2.46c-.38-1-.72-2-1-3.07a15.58,15.58,0,0,1-.5-4.26,22.1,22.1,0,0,1,.72-7,1.42,1.42,0,0,1,2.72.1,9.91,9.91,0,0,0,1.7,4,2.61,2.61,0,0,0,1.31.94,1.19,1.19,0,0,0,1.38-.58,1.86,1.86,0,0,0,.05-.94,24.85,24.85,0,0,1,1.95-12.75,1.43,1.43,0,0,1,2.63.13,6.43,6.43,0,0,0,1.33,2.6c1.46,1.2,3.58-.52,4.8-1.35a35.66,35.66,0,0,0,4.34-3.72,15,15,0,0,1,2.59-2,1.4,1.4,0,0,1,1-.31.92.92,0,0,1,.64.84,2.36,2.36,0,0,1-.25,1.1c-.59,1.39-1.4,2.68-2.07,4-.82,1.63-2.14,4.68-.72,6.32a3,3,0,0,0,1.88.92,6.1,6.1,0,0,0,2.65-.26,1.43,1.43,0,0,1,1.66,2,23.61,23.61,0,0,1-8.62,8.25,3.7,3.7,0,0,0-1.07.8,1.1,1.1,0,0,0-.14,1.24,1.5,1.5,0,0,0,1.09.52,13,13,0,0,0,5-.15c1.37-.31,2.51,1,1.68,2.14-4.43,6.12-12.38,5.79-15,6.26-3.11.55-2.24,3.25,0,4a12.54,12.54,0,0,0,7.24-.29,1.42,1.42,0,0,1,1.51,2.26c-2.43,2.82-6.73,5.13-12.81,4.84C317.27,307.75,314.24,309.12,313.52,311.1Z" style="opacity:0.1"></path><path d="M333.17,271.36c-2.71,4-16.47,25.52-19.65,39.74" style="fill:none;stroke:#fff;stroke-linecap:round;stroke-miterlimit:10"></path><path d="M319.8,320.49c1.87-.77,4.91-1.08,8.91,1.43s9.35,3.95,13.78,1.82c.59-.29,1.11-.91.92-1.53s-.92-.85-1.55-1a25.48,25.48,0,0,1-3.07-1,5.28,5.28,0,0,1-2.54-1.71,1.34,1.34,0,0,1-.23-1.27,1.18,1.18,0,0,1,1-.61,3.46,3.46,0,0,1,1.19.16c4.89,1.17,10.81,1.77,15.53-.4a1.42,1.42,0,0,0-.42-2.68c-1.59-.22-4.09.06-5.15-1.44a.94.94,0,0,1-.19-.85c.14-.41.63-.57,1.05-.67,4.48-1.05,8.79-2.07,12.77-4.51.6-.37,1-1.38.35-1.89s-2.23-.37-2.9-.41a3,3,0,0,1-2.39-.81c-1.55-2.12,1.85-4.82,3.3-5.81a23.75,23.75,0,0,1,4-2.36,10.93,10.93,0,0,0,2.9-1.5,1.49,1.49,0,0,0,.55-1c.08-1.87-5.65-.53-6.7-.29-2.52.58-5.09,1.37-7.72,1.12-.8-.08-1.93-.38-2.17-1.27a9.63,9.63,0,0,1,.16-3.38c.13-.92-.39-1.89-1.53-1.7-1,.15-2.23,1.6-2.94,2.22a16.63,16.63,0,0,0-4.76,7.34,4,4,0,0,1-.54,1.26,1.2,1.2,0,0,1-1.21.49c-.57-.18-.78-.86-.88-1.45a18.68,18.68,0,0,1-.14-5c.09-.79.08-1.83-.68-2.09a1.55,1.55,0,0,0-1.22.26c-5.42,3.15-5.43,12.22-6,17.56a.51.51,0,0,1-.14.38.55.55,0,0,1-.31.1,2.08,2.08,0,0,1-1.51-.68,4.64,4.64,0,0,1-.89-1.44,9.6,9.6,0,0,1-.87-5.82c.25-1.34-1.12-3-2.36-1.63-2.51,2.76-4.29,7.3-3.27,13.3C322.67,316.36,321.25,319,319.8,320.49Z" style="fill:#1E3A8A"></path><path d="M356.48,295.92c-8.78,1.66-29,16.64-36.68,24.57" style="fill:none;stroke:#fff;stroke-linecap:round;stroke-miterlimit:10"></path></g><g id="freepik--Snowman--inject-6"><path d="M189.48,327.55a12.7,12.7,0,0,0-25.39,0c0,.12,0,.23,0,.36s0,.23,0,.35c.15,1.76,1.38,3.5,3.71,4.84,5,2.86,13,2.86,18,0,2.33-1.34,3.57-3.08,3.71-4.84a2.06,2.06,0,0,0,0-.35A2.11,2.11,0,0,0,189.48,327.55Z" style="fill:#f5f5f5"></path><path d="M185.77,333.1c2.33-1.34,3.57-3.08,3.71-4.84a2.06,2.06,0,0,0,0-.35,2.11,2.11,0,0,0,0-.36,12.29,12.29,0,0,0-.85-4.21c.31,5.44-2.27,8.75-10.29,9.77-8.28,1.05-13.27-2.38-14-3.62a7.36,7.36,0,0,0,3.42,3.61C172.76,336,180.81,336,185.77,333.1Z" style="fill:#e0e0e0"></path><path d="M362,249.79a6,6,0,0,1,11.9,0,.86.86,0,0,1,0,.16,1,1,0,0,1,0,.17,3,3,0,0,1-1.73,2.27,9.34,9.34,0,0,1-8.43,0,3.06,3.06,0,0,1-1.74-2.27v-.33Z" style="fill:#f5f5f5"></path><path d="M363.78,252.39a3.06,3.06,0,0,1-1.74-2.27v-.33a6,6,0,0,1,3.1-5.06c0,.06-3,3.74-.8,6.2,1.5,1.69,6.64,2,8.89.66a4.07,4.07,0,0,1-1,.8A9.34,9.34,0,0,1,363.78,252.39Z" style="fill:#e0e0e0"></path><path d="M372,405.5a18,18,0,0,1,36,0,6.26,6.26,0,0,1,0,1c-.2,2.5-2,4.95-5.25,6.85-7,4.06-18.42,4.06-25.44,0-3.3-1.9-5.06-4.35-5.26-6.85a6.26,6.26,0,0,1,0-1Z" style="fill:#f5f5f5"></path><path d="M377.28,413.35c-3.3-1.9-5.06-4.35-5.26-6.85a6.26,6.26,0,0,1,0-1,17.92,17.92,0,0,1,9.35-15.27c-.09.17-8.95,11.29-2.4,18.71,4.51,5.12,20,6.06,26.86,2a13.43,13.43,0,0,1-3.11,2.4C395.7,417.41,384.3,417.41,377.28,413.35Z" style="fill:#e0e0e0"></path><path d="M400.09,413.55a12.7,12.7,0,0,1,25.39,0,2.11,2.11,0,0,1,0,.36,2.06,2.06,0,0,1,0,.35c-.14,1.76-1.37,3.5-3.7,4.84-5,2.86-13,2.86-18,0-2.33-1.34-3.57-3.08-3.72-4.84,0-.12,0-.23,0-.35S400.08,413.67,400.09,413.55Z" style="fill:#f5f5f5"></path><path d="M403.81,419.1c-2.33-1.34-3.57-3.08-3.72-4.84,0-.12,0-.23,0-.35s0-.24,0-.36a12.54,12.54,0,0,1,.86-4.21c-.32,5.44,2.27,8.75,10.29,9.77,8.27,1.05,13.27-2.38,14-3.62a7.4,7.4,0,0,1-3.42,3.61C416.82,422,408.77,422,403.81,419.1Z" style="fill:#e0e0e0"></path><path d="M300.52,331a18,18,0,0,1,36,0,6.26,6.26,0,0,1,0,1c-.2,2.5-2,4.95-5.25,6.85-7,4.06-18.42,4.06-25.44,0-3.3-1.9-5.06-4.35-5.26-6.85a6.26,6.26,0,0,1,0-1Z" style="fill:#f5f5f5"></path><path d="M305.78,338.85c-3.3-1.9-5.06-4.35-5.26-6.85a6.26,6.26,0,0,1,0-1,17.92,17.92,0,0,1,9.35-15.27c-.09.17-8.95,11.29-2.4,18.71,4.51,5.12,20,6.06,26.86,2a13.43,13.43,0,0,1-3.11,2.4C324.2,342.91,312.8,342.91,305.78,338.85Z" style="fill:#e0e0e0"></path><path d="M326.59,339.05a12.7,12.7,0,0,1,25.39,0,2.11,2.11,0,0,1,0,.36,2.06,2.06,0,0,1,0,.35c-.14,1.76-1.37,3.5-3.7,4.84-5,2.86-13,2.86-18,0-2.33-1.34-3.57-3.08-3.72-4.84,0-.12,0-.23,0-.35S326.58,339.17,326.59,339.05Z" style="fill:#f5f5f5"></path><path d="M330.31,344.6c-2.33-1.34-3.57-3.08-3.72-4.84,0-.12,0-.23,0-.35s0-.24,0-.36a12.54,12.54,0,0,1,.86-4.21c-.32,5.44,2.27,8.75,10.29,9.77,8.27,1.05,13.27-2.38,14-3.62a7.4,7.4,0,0,1-3.42,3.61C343.32,347.46,335.27,347.46,330.31,344.6Z" style="fill:#e0e0e0"></path><path d="M383.06,251.28a8.52,8.52,0,0,1,17,0,2,2,0,0,1,0,.24,1.93,1.93,0,0,1,0,.24,4.37,4.37,0,0,1-2.48,3.25,13.35,13.35,0,0,1-12.06,0,4.39,4.39,0,0,1-2.49-3.25,1.93,1.93,0,0,1,0-.24A2,2,0,0,1,383.06,251.28Z" style="fill:#f0f0f0"></path><path d="M385.55,255a4.39,4.39,0,0,1-2.49-3.25,1.93,1.93,0,0,1,0-.24,2,2,0,0,1,0-.24,8.49,8.49,0,0,1,4.43-7.23c-.05.08-4.24,5.35-1.14,8.86,2.14,2.43,9.5,2.87,12.73,1a6.8,6.8,0,0,1-1.47,1.14A13.35,13.35,0,0,1,385.55,255Z" style="fill:#e0e0e0"></path><path d="M395.41,255.1a6,6,0,0,1,12,0,1,1,0,0,1,0,.17,1,1,0,0,1,0,.17,3.1,3.1,0,0,1-1.75,2.29,9.47,9.47,0,0,1-8.52,0,3.12,3.12,0,0,1-1.76-2.29v-.34Z" style="fill:#f0f0f0"></path><path d="M397.17,257.73a3.12,3.12,0,0,1-1.76-2.29v-.34a6.09,6.09,0,0,1,.41-2c-.15,2.58,1.07,4.15,4.87,4.63s6.29-1.12,6.62-1.71a3.54,3.54,0,0,1-1.62,1.71A9.47,9.47,0,0,1,397.17,257.73Z" style="fill:#e0e0e0"></path><path d="M352.36,413.66a12.12,12.12,0,0,1,24.23,0,1.88,1.88,0,0,1,0,.34,1.83,1.83,0,0,1,0,.33c-.13,1.69-1.31,3.34-3.53,4.62-4.74,2.73-12.42,2.73-17.16,0-2.22-1.28-3.4-2.93-3.54-4.62,0-.11,0-.22,0-.33S352.35,413.77,352.36,413.66Z" style="fill:#f5f5f5"></path><path d="M352.36,413.66a12.12,12.12,0,0,1,24.23,0,1.88,1.88,0,0,1,0,.34,1.83,1.83,0,0,1,0,.33c-.13,1.69-1.31,3.34-3.53,4.62-4.74,2.73-12.42,2.73-17.16,0-2.22-1.28-3.4-2.93-3.54-4.62,0-.11,0-.22,0-.33S352.35,413.77,352.36,413.66Z" style="fill:#f5f5f5;opacity:0.7000000000000001"></path><path d="M355.9,419c-2.22-1.28-3.4-2.93-3.54-4.62,0-.11,0-.22,0-.33s0-.23,0-.34a12,12,0,0,1,.81-4c-.29,5.2,2.17,8.36,9.83,9.33,7.9,1,12.66-2.27,13.32-3.45a7.08,7.08,0,0,1-3.26,3.44C368.32,421.68,360.64,421.68,355.9,419Z" style="fill:#e0e0e0"></path><path d="M193.84,212.77l34.8,7.75a3.29,3.29,0,0,0,1.43-6.43l-34.8-7.74a1.72,1.72,0,0,1-1.33-1.49l-2.14-19.61a4.88,4.88,0,0,1,2.09-4.57c3.87-2.65,5.87-7.24,6.5-10.18a2.46,2.46,0,0,0-1.62-2.88,2.36,2.36,0,0,0-3,1.79,13.84,13.84,0,0,1-3.49,6.53,1,1,0,0,1-1.61-.61l-1.55-14.24a3.41,3.41,0,0,0-3.3-3.09,3.3,3.3,0,0,0-1.87.6,3.26,3.26,0,0,0-1.39,3.05l1.54,14.15a1,1,0,0,1-1.46.92c-3.65-2.44-5-7.4-5.05-7.68a2.35,2.35,0,0,0-2.85-1.71,2.53,2.53,0,0,0-.78.36,2.36,2.36,0,0,0-.93,2.5c.11.42,2.3,8.83,9.18,11.65a4.89,4.89,0,0,1,3,4l2.16,19.73A8.27,8.27,0,0,0,193.84,212.77Z" style="fill:#455a64"></path><ellipse cx="258.88" cy="300.27" rx="61.12" ry="56.47" style="fill:#f0f0f0"></ellipse><path d="M258.89,243.79c-17.14,0-33.63,6.23-45.16,17.53,3.08,14.61,26.54,26.2,45.16,26.2s41.9-11.59,45.17-26.2C292.53,250,276,243.79,258.89,243.79Z" style="fill:#e0e0e0"></path><ellipse cx="258.89" cy="235.53" rx="49.29" ry="45.54" style="fill:#f0f0f0"></ellipse><path d="M289.57,199.34C282,207.46,270.68,212,258.9,212s-23.1-4.5-30.68-12.62a45,45,0,0,0-8.31,7.51,10.7,10.7,0,0,0,3.75,6.79c.92.72,1.87,1.4,2.83,2.06a33.77,33.77,0,0,0-6.42,9.46c-2.91,6.53-3.42,11.85-2.18,13.68s9,4.72,10.56,2.61c1.47-2,2.39-11.34,8-20.18,1.25.55,2.51,1.07,3.79,1.54-.11,3.53-.39,9.93-1,15.11-.89,7.58-2.37,12.56-2.13,14.56s4.72,3.48,8.25,3.48,6.64-.55,7.1-4.23a169.89,169.89,0,0,0,.76-25.87,51.59,51.59,0,0,0,5.7.33c13,0,25.55-5,35.23-12.54a10.7,10.7,0,0,0,3.73-6.82A45.1,45.1,0,0,0,289.57,199.34Z" style="fill:#e0e0e0"></path><path d="M222.53,198.13a9.28,9.28,0,0,0,2.68,11.64,56.65,56.65,0,0,0,67.36,0,9.35,9.35,0,0,0,2.8-11.41c-.13-.27-.27-.53-.42-.79-2.13-3.64-4.52-3.17-4.52-3.17-7.13,9.4-19.06,14.66-31.54,14.66s-24.4-5.26-31.53-14.66a6.62,6.62,0,0,0-4.49,3.15A5.51,5.51,0,0,0,222.53,198.13Z" style="fill:#1E3A8A"></path><path d="M226.73,210.9a33.47,33.47,0,0,0-8.39,11.32c-2.9,6.53-3.42,11.85-2.17,13.68s9,4.72,10.56,2.61,2.51-12.71,9.24-22.06c0,0,1-3.5-3.32-5.55S226.73,210.9,226.73,210.9Z" style="fill:#1E3A8A"></path><path d="M238.57,217.2s-.19,10.21-1.07,17.78-2.38,12.56-2.13,14.56,4.72,3.48,8.24,3.48,6.65-.55,7.11-4.23,1.62-18.7.53-28.42a11,11,0,0,0-5.4-3.92C240.72,214.79,238.57,217.2,238.57,217.2Z" style="fill:#1E3A8A"></path><ellipse cx="258.89" cy="173.7" rx="38.27" ry="35.36" style="fill:#f0f0f0"></ellipse><path d="M222,163.78a40.49,40.49,0,0,0,4.5,3c17.9,10.33,46.93,10.33,64.83,0a40.49,40.49,0,0,0,4.5-3c-4.6-16.08-20.28-25.44-36.92-25.44S226.58,147.7,222,163.78Z" style="fill:#e0e0e0"></path><path d="M228.33,170.88a6.33,6.33,0,0,1,2.87,5c0,1.83-1.29,2.57-2.87,1.65a6.32,6.32,0,0,1-2.86-5C225.47,170.7,226.75,170,228.33,170.88Z" style="fill:#37474f"></path><path d="M247.43,180a6.36,6.36,0,0,1,2.87,5c0,1.82-1.28,2.56-2.87,1.65a6.33,6.33,0,0,1-2.86-5C244.57,179.85,245.85,179.11,247.43,180Z" style="fill:#37474f"></path><path d="M241.31,189.56a11.81,11.81,0,0,0-5.34-9.25c-1.54-.89-2.92-.93-3.89-.29h0l-23.94,15.66h0a2.14,2.14,0,0,0,1.1,4,1.84,1.84,0,0,0,.41-.05h0L239,193.32H239C240.41,193,241.31,191.65,241.31,189.56Z" style="fill:#1E3A8A"></path><path d="M241.31,189.56a11.81,11.81,0,0,0-5.34-9.25c-1.54-.89-2.92-.93-3.89-.29h0l-23.94,15.66h0a2.14,2.14,0,0,0,1.1,4,1.84,1.84,0,0,0,.41-.05h0L239,193.32H239C240.41,193,241.31,191.65,241.31,189.56Z" style="opacity:0.30000000000000004"></path><path d="M315.17,251.46,294.53,222.4a3.29,3.29,0,0,0-5.37,3.81l20.64,29.06a1.71,1.71,0,0,1,0,2l-11.55,16a4.9,4.9,0,0,1-4.61,2,17.21,17.21,0,0,0-11.65,3.2,2.43,2.43,0,0,0-.72,3.22,2.35,2.35,0,0,0,3.39.66,13.7,13.7,0,0,1,7-2.51,1,1,0,0,1,.79,1.53L284,293a3.41,3.41,0,0,0,.38,4.5,3.33,3.33,0,0,0,1.79.82,3.3,3.3,0,0,0,3.08-1.34l8.33-11.54a1,1,0,0,1,1.71.3c1.07,4.25-1.27,8.83-1.4,9.08a2.35,2.35,0,0,0,1,3.18,2.45,2.45,0,0,0,.81.25,2.34,2.34,0,0,0,2.37-1.23c.21-.39,4.21-8.09,1-14.8a4.87,4.87,0,0,1,.46-5l11.61-16.1A8.29,8.29,0,0,0,315.17,251.46Z" style="fill:#455a64"></path><ellipse cx="258.89" cy="148.08" rx="39.93" ry="23.05" style="fill:#1E3A8A"></ellipse><ellipse cx="258.89" cy="148.08" rx="39.93" ry="23.05" style="opacity:0.4"></ellipse><path d="M289.21,112.79H228.47l5.16,34.28h0c.47,3.34,2.91,6.6,7.33,9.15,9.9,5.72,26,5.72,35.85,0,4.42-2.55,6.86-5.81,7.33-9.15h0Z" style="fill:#1E3A8A"></path><path d="M289.21,112.79H228.47l5.16,34.28h0c.47,3.34,2.91,6.6,7.33,9.15,9.9,5.72,26,5.72,35.85,0,4.42-2.55,6.86-5.81,7.33-9.15h0Z" style="opacity:0.6000000000000001"></path><path d="M283,141.41a19.34,19.34,0,0,1-5,4,29.26,29.26,0,0,1-3.37,1.65,44,44,0,0,1-31.5,0,29.26,29.26,0,0,1-3.37-1.65,19.34,19.34,0,0,1-5-4A11.21,11.21,0,0,1,232,135.9l1.65,11.17c.47,3.34,2.92,6.59,7.34,9.15,9.9,5.72,25.94,5.72,35.85,0,4.42-2.56,6.86-5.81,7.33-9.15l1.66-11.17A11.06,11.06,0,0,1,283,141.41Z" style="opacity:0.4"></path><path d="M237.38,123.81c-11.88-6.86-11.88-18,0-24.84s31.14-6.86,43,0,11.88,18,0,24.84S249.26,130.67,237.38,123.81Z" style="fill:#1E3A8A"></path><path d="M237.38,123.81c-11.88-6.86-11.88-18,0-24.84s31.14-6.86,43,0,11.88,18,0,24.84S249.26,130.67,237.38,123.81Z" style="opacity:0.4"></path></g></svg>